<?xml version="1.0" standalone="no"?>
<!DOCTYPE svg PUBLIC "-//W3C//DTD SVG 20010904//EN"
 "http://www.w3.org/TR/2001/REC-SVG-20010904/DTD/svg10.dtd">
<svg version="1.0" xmlns="http://www.w3.org/2000/svg"
 width="200.000000pt" height="200.000000pt" viewBox="0 0 200.000000 200.000000"
 preserveAspectRatio="xMidYMid meet">
<metadata>
Created by potrace 1.11, written by Peter Selinger 2001-2013
</metadata>
<g transform="translate(0.000000,200.000000) scale(0.100000,-0.100000)"
fill="#000000" stroke="none">
<path d="M1122 1704 c-7 -3 -17 -14 -23 -25 -8 -15 -176 -562 -194 -629 -2 -8
-44 -148 -94 -310 -114 -375 -115 -376 -91 -400 24 -24 123 -53 151 -45 25 8
53 73 89 210 4 17 42 140 83 275 41 135 109 360 152 500 42 140 82 273 88 295
19 62 12 84 -36 105 -47 21 -106 32 -125 24z"/>
<path d="M514 1540 c-11 -4 -36 -28 -55 -51 -19 -24 -114 -140 -212 -257 -97
-117 -177 -222 -177 -232 0 -18 53 -87 200 -260 36 -42 102 -121 148 -177 46
-56 93 -104 104 -106 26 -7 63 11 106 52 49 47 47 75 -11 146 -23 27 -44 52
-47 55 -4 3 -49 57 -100 120 -52 63 -105 126 -117 140 -13 14 -23 27 -23 30 0
3 71 88 156 190 85 102 162 197 170 213 22 41 0 75 -81 128 -34 21 -32 21 -61
9z"/>
<path d="M1425 1531 c-53 -34 -84 -67 -89 -95 -4 -24 16 -52 146 -209 83 -100
160 -192 171 -204 l19 -22 -167 -201 c-91 -111 -168 -209 -170 -219 -9 -47 94
-137 143 -124 11 3 83 80 159 171 76 92 142 172 148 178 5 6 26 30 45 54 19
24 50 61 68 83 17 21 32 47 32 58 0 14 -105 151 -165 215 -5 6 -23 28 -40 49
-39 49 -203 246 -219 261 -22 22 -51 24 -81 5z"/>
</g>
</svg>
